<svg xmlns="http://www.w3.org/2000/svg" width="840" height="372" viewBox="0 0 840 372"><title>thisisreyy@github</title><rect x=".5" y=".5" width="839" height="371" rx="10" fill="#0d1117" stroke="#30363d"/><path d="M0 44H840" stroke="#30363d"/><circle cx="24" cy="22" r="5.5" fill="#ff5f56"/><circle cx="44" cy="22" r="5.5" fill="#ffbd2e"/><circle cx="64" cy="22" r="5.5" fill="#27c93f"/><g font-family="ui-monospace,Menlo,Consolas,monospace" font-size="13.5" fill="#c9d1d9"><text x="420" y="26" text-anchor="middle" font-size="12" fill="#8b949e">thisisreyy@github ~/work</text><path d="M30 92h13v13h-13zM46 92h13v13h-13zM62 92h13v13h-13zM30 108h13v13h-13zM78 108h13v13h-13zM30 124h13v13h-13zM46 124h13v13h-13zM62 124h13v13h-13zM30 140h13v13h-13zM62 140h13v13h-13zM30 156h13v13h-13zM78 156h13v13h-13zM107 92h13v13h-13zM123 92h13v13h-13zM139 92h13v13h-13zM155 92h13v13h-13zM107 108h13v13h-13zM107 124h13v13h-13zM123 124h13v13h-13zM139 124h13v13h-13zM107 140h13v13h-13zM107 156h13v13h-13zM123 156h13v13h-13zM139 156h13v13h-13zM155 156h13v13h-13zM184 92h13v13h-13zM232 92h13v13h-13zM184 108h13v13h-13zM232 108h13v13h-13zM200 124h13v13h-13zM216 124h13v13h-13zM200 140h13v13h-13zM216 140h13v13h-13zM200 156h13v13h-13zM216 156h13v13h-13z" fill="#3fb950"><animate attributeName="opacity" values="0;0;1" keyTimes="0;0.1071;1" dur="0.56s" fill="freeze"/></path><text x="30" y="228" font-size="13" fill="#8b949e"><animate attributeName="opacity" values="0;0;1" keyTimes="0;0.4048;1" dur="0.84s" fill="freeze"/>Manchester, UK</text><text x="30" y="248" font-size="13" fill="#8b949e"><animate attributeName="opacity" values="0;0;1" keyTimes="0;0.4444;1" dur="0.9s" fill="freeze"/>aatreyeechatterjee.com</text><text x="272" y="96" font-size="14" font-weight="700"><animate attributeName="opacity" values="0;0;1" keyTimes="0;0.2647;1" dur="0.68s" fill="freeze"/><tspan fill="#3fb950">thisisreyy</tspan><tspan fill="#8b949e">@</tspan><tspan fill="#58a6ff">github</tspan></text><path d="M272 108H800" stroke="#30363d"><animate attributeName="opacity" values="0;0;1" keyTimes="0;0.3056;1" dur="0.72s" fill="freeze"/></path><text y="140"><animate attributeName="opacity" values="0;0;1" keyTimes="0;0.4048;1" dur="0.84s" fill="freeze"/><tspan x="272" fill="#58a6ff" font-weight="600">Now</tspan><tspan x="380" fill="#c9d1d9">Graduate software engineer, open to roles</tspan></text><text y="166"><animate attributeName="opacity" values="0;0;1" keyTimes="0;0.4565;1" dur="0.92s" fill="freeze"/><tspan x="272" fill="#58a6ff" font-weight="600">Prev</tspan><tspan x="380" fill="#c9d1d9">BSc Computer Science, Univ. of Manchester</tspan></text><text y="192"><animate attributeName="opacity" values="0;0;1" keyTimes="0;0.5;1" dur="1.0s" fill="freeze"/><tspan x="272" fill="#58a6ff" font-weight="600">Stack</tspan><tspan x="380" fill="#c9d1d9">Python / TypeScript / FastAPI / React</tspan></text><text y="218"><animate attributeName="opacity" values="0;0;1" keyTimes="0;0.537;1" dur="1.08s" fill="freeze"/><tspan x="272" fill="#58a6ff" font-weight="600">Building</tspan><tspan x="380" fill="#c9d1d9">signal, an autonomous growth agent</tspan></text><text y="244"><animate attributeName="opacity" values="0;0;1" keyTimes="0;0.569;1" dur="1.16s" fill="freeze"/><tspan x="272" fill="#58a6ff" font-weight="600">Tested</tspan><tspan x="380" fill="#c9d1d9">234 tests in pennywise, 38 in interviewcoach</tspan></text><text y="270"><animate attributeName="opacity" values="0;0;1" keyTimes="0;0.5968;1" dur="1.24s" fill="freeze"/><tspan x="272" fill="#58a6ff" font-weight="600">Ethos</tspan><tspan x="380" fill="#c9d1d9">plausible output is not correct output</tspan></text><g><animate attributeName="opacity" values="0;0;1" keyTimes="0;0.6324;1" dur="1.36s" fill="freeze"/><rect x="272" y="296" width="26" height="12" rx="2" fill="#f85149"/><rect x="304" y="296" width="26" height="12" rx="2" fill="#d29922"/><rect x="336" y="296" width="26" height="12" rx="2" fill="#3fb950"/><rect x="368" y="296" width="26" height="12" rx="2" fill="#58a6ff"/><rect x="400" y="296" width="26" height="12" rx="2" fill="#bc8cff"/><rect x="432" y="296" width="26" height="12" rx="2" fill="#39c5cf"/><rect x="464" y="296" width="26" height="12" rx="2" fill="#c9d1d9"/></g><text x="272" y="342"><animate attributeName="opacity" values="0;0;1" keyTimes="0;0.6575;1" dur="1.46s" fill="freeze"/><tspan fill="#3fb950" font-weight="700">$</tspan><tspan> git commit -m "show your work"</tspan><tspan fill="#3fb950"> &#9608;<animate attributeName="opacity" values="1;1;0;0" keyTimes="0;.49;.5;1" dur="1.05s" begin="1.4s" repeatCount="indefinite"/></tspan></text></g></svg>
